<mxfile host="Electron" modified="2025-02-21T03:54:39.522Z" agent="Mozilla/5.0 (Windows NT 10.0; Win64; x64) AppleWebKit/537.36 (KHTML, like Gecko) draw.io/22.1.18 Chrome/120.0.6099.199 Electron/28.1.2 Safari/537.36" etag="6jo14FSvI3N6CeevXiK6" version="22.1.18" type="device">
  <diagram name="Page-1" id="3hB88fkpvhyuUNpVQ_lG">
    <mxGraphModel dx="1562" dy="917" grid="1" gridSize="10" guides="1" tooltips="1" connect="1" arrows="1" fold="1" page="1" pageScale="1" pageWidth="850" pageHeight="1100" math="0" shadow="0">
      <root>
        <mxCell id="0" />
        <mxCell id="1" parent="0" />
        <mxCell id="FDPI31BmAs5dh3hoqVat-1" value="Client" style="rounded=0;whiteSpace=wrap;html=1;" parent="1" vertex="1">
          <mxGeometry x="40" y="330" width="120" height="60" as="geometry" />
        </mxCell>
        <mxCell id="FDPI31BmAs5dh3hoqVat-2" value="Target&lt;br&gt;(Hello API)" style="rounded=0;whiteSpace=wrap;html=1;" parent="1" vertex="1">
          <mxGeometry x="680" y="330" width="120" height="60" as="geometry" />
        </mxCell>
        <mxCell id="FDPI31BmAs5dh3hoqVat-3" value="Queue System" style="rounded=0;whiteSpace=wrap;html=1;" parent="1" vertex="1">
          <mxGeometry x="360" y="330" width="120" height="60" as="geometry" />
        </mxCell>
        <mxCell id="FDPI31BmAs5dh3hoqVat-4" value="" style="endArrow=classic;html=1;rounded=0;" parent="1" source="FDPI31BmAs5dh3hoqVat-1" target="FDPI31BmAs5dh3hoqVat-3" edge="1">
          <mxGeometry width="50" height="50" relative="1" as="geometry">
            <mxPoint x="210" y="240" as="sourcePoint" />
            <mxPoint x="400" y="240" as="targetPoint" />
          </mxGeometry>
        </mxCell>
        <mxCell id="FDPI31BmAs5dh3hoqVat-6" value="https://q.nexon.com/q/hello/products" style="edgeLabel;html=1;align=center;verticalAlign=middle;resizable=0;points=[];" parent="FDPI31BmAs5dh3hoqVat-4" vertex="1" connectable="0">
          <mxGeometry x="-0.1811" y="1" relative="1" as="geometry">
            <mxPoint x="12" y="-9" as="offset" />
          </mxGeometry>
        </mxCell>
        <mxCell id="FDPI31BmAs5dh3hoqVat-5" value="" style="endArrow=classic;html=1;rounded=0;" parent="1" source="FDPI31BmAs5dh3hoqVat-3" target="FDPI31BmAs5dh3hoqVat-2" edge="1">
          <mxGeometry width="50" height="50" relative="1" as="geometry">
            <mxPoint x="280" y="470" as="sourcePoint" />
            <mxPoint x="470" y="470" as="targetPoint" />
          </mxGeometry>
        </mxCell>
        <mxCell id="FDPI31BmAs5dh3hoqVat-8" value="https://hello.nexon.com/api/producs" style="edgeLabel;html=1;align=center;verticalAlign=middle;resizable=0;points=[];" parent="FDPI31BmAs5dh3hoqVat-5" vertex="1" connectable="0">
          <mxGeometry x="-0.248" y="4" relative="1" as="geometry">
            <mxPoint x="17" y="-6" as="offset" />
          </mxGeometry>
        </mxCell>
        <mxCell id="FDPI31BmAs5dh3hoqVat-10" value="Queue System&lt;br&gt;(https://q.nexon.com)" style="swimlane;whiteSpace=wrap;html=1;startSize=40;" parent="1" vertex="1">
          <mxGeometry x="280" y="420" width="280" height="180" as="geometry" />
        </mxCell>
        <mxCell id="FDPI31BmAs5dh3hoqVat-11" value="Web Console&lt;br&gt;(/*)" style="rounded=0;whiteSpace=wrap;html=1;" parent="FDPI31BmAs5dh3hoqVat-10" vertex="1">
          <mxGeometry x="150" y="70" width="120" height="60" as="geometry" />
        </mxCell>
        <mxCell id="FDPI31BmAs5dh3hoqVat-12" value="Queue Proxy&lt;br&gt;(/q/*, /resume/*)" style="rounded=0;whiteSpace=wrap;html=1;" parent="FDPI31BmAs5dh3hoqVat-10" vertex="1">
          <mxGeometry x="10" y="70" width="120" height="60" as="geometry" />
        </mxCell>
        <mxCell id="FDPI31BmAs5dh3hoqVat-16" value="Queue Proxy" style="swimlane;whiteSpace=wrap;html=1;" parent="1" vertex="1">
          <mxGeometry x="280" y="640" width="280" height="440" as="geometry" />
        </mxCell>
        <mxCell id="FDPI31BmAs5dh3hoqVat-17" value="Proxy Controller" style="rounded=0;whiteSpace=wrap;html=1;" parent="FDPI31BmAs5dh3hoqVat-16" vertex="1">
          <mxGeometry x="80" y="40" width="120" height="60" as="geometry" />
        </mxCell>
        <mxCell id="FDPI31BmAs5dh3hoqVat-38" value="Proxy Processor" style="rounded=0;whiteSpace=wrap;html=1;" parent="FDPI31BmAs5dh3hoqVat-16" vertex="1">
          <mxGeometry x="80" y="190" width="120" height="60" as="geometry" />
        </mxCell>
        <mxCell id="FDPI31BmAs5dh3hoqVat-39" value="Request Queues" style="rounded=0;whiteSpace=wrap;html=1;" parent="FDPI31BmAs5dh3hoqVat-16" vertex="1">
          <mxGeometry x="80" y="350" width="120" height="60" as="geometry" />
        </mxCell>
        <mxCell id="FDPI31BmAs5dh3hoqVat-40" value="" style="endArrow=classic;html=1;rounded=0;exitX=0.25;exitY=1;exitDx=0;exitDy=0;entryX=0.25;entryY=0;entryDx=0;entryDy=0;" parent="FDPI31BmAs5dh3hoqVat-16" source="FDPI31BmAs5dh3hoqVat-17" target="FDPI31BmAs5dh3hoqVat-38" edge="1">
          <mxGeometry width="50" height="50" relative="1" as="geometry">
            <mxPoint x="-130" y="220" as="sourcePoint" />
            <mxPoint x="-80" y="170" as="targetPoint" />
          </mxGeometry>
        </mxCell>
        <mxCell id="FDPI31BmAs5dh3hoqVat-41" value="Request" style="edgeLabel;html=1;align=center;verticalAlign=middle;resizable=0;points=[];" parent="FDPI31BmAs5dh3hoqVat-40" vertex="1" connectable="0">
          <mxGeometry x="-0.0774" y="1" relative="1" as="geometry">
            <mxPoint as="offset" />
          </mxGeometry>
        </mxCell>
        <mxCell id="FDPI31BmAs5dh3hoqVat-42" value="" style="endArrow=classic;html=1;rounded=0;entryX=0.75;entryY=1;entryDx=0;entryDy=0;exitX=0.75;exitY=0;exitDx=0;exitDy=0;" parent="FDPI31BmAs5dh3hoqVat-16" source="FDPI31BmAs5dh3hoqVat-38" target="FDPI31BmAs5dh3hoqVat-17" edge="1">
          <mxGeometry width="50" height="50" relative="1" as="geometry">
            <mxPoint x="380" y="290" as="sourcePoint" />
            <mxPoint x="430" y="240" as="targetPoint" />
          </mxGeometry>
        </mxCell>
        <mxCell id="FDPI31BmAs5dh3hoqVat-43" value="Forward/Reject&lt;br&gt;Command" style="edgeLabel;html=1;align=center;verticalAlign=middle;resizable=0;points=[];" parent="FDPI31BmAs5dh3hoqVat-42" vertex="1" connectable="0">
          <mxGeometry x="0.0621" relative="1" as="geometry">
            <mxPoint x="40" as="offset" />
          </mxGeometry>
        </mxCell>
        <mxCell id="FDPI31BmAs5dh3hoqVat-44" value="" style="endArrow=classic;html=1;rounded=0;exitX=0.25;exitY=1;exitDx=0;exitDy=0;entryX=0.25;entryY=0;entryDx=0;entryDy=0;" parent="FDPI31BmAs5dh3hoqVat-16" source="FDPI31BmAs5dh3hoqVat-38" target="FDPI31BmAs5dh3hoqVat-39" edge="1">
          <mxGeometry width="50" height="50" relative="1" as="geometry">
            <mxPoint x="-120" y="310" as="sourcePoint" />
            <mxPoint x="-70" y="260" as="targetPoint" />
          </mxGeometry>
        </mxCell>
        <mxCell id="FDPI31BmAs5dh3hoqVat-45" value="" style="endArrow=classic;html=1;rounded=0;exitX=0.75;exitY=0;exitDx=0;exitDy=0;entryX=0.75;entryY=1;entryDx=0;entryDy=0;" parent="FDPI31BmAs5dh3hoqVat-16" source="FDPI31BmAs5dh3hoqVat-39" target="FDPI31BmAs5dh3hoqVat-38" edge="1">
          <mxGeometry width="50" height="50" relative="1" as="geometry">
            <mxPoint x="-240.69" y="260" as="sourcePoint" />
            <mxPoint x="-240.69" y="360" as="targetPoint" />
          </mxGeometry>
        </mxCell>
        <mxCell id="FDPI31BmAs5dh3hoqVat-19" value="Database" style="shape=cylinder3;whiteSpace=wrap;html=1;boundedLbl=1;backgroundOutline=1;size=15;" parent="1" vertex="1">
          <mxGeometry x="720" y="650" width="80" height="120" as="geometry" />
        </mxCell>
        <mxCell id="FDPI31BmAs5dh3hoqVat-21" value="" style="endArrow=classic;html=1;rounded=0;" parent="1" source="FDPI31BmAs5dh3hoqVat-19" target="FDPI31BmAs5dh3hoqVat-17" edge="1">
          <mxGeometry width="50" height="50" relative="1" as="geometry">
            <mxPoint x="600" y="900" as="sourcePoint" />
            <mxPoint x="550" y="900" as="targetPoint" />
          </mxGeometry>
        </mxCell>
        <mxCell id="FDPI31BmAs5dh3hoqVat-23" value="target mapping" style="edgeLabel;html=1;align=center;verticalAlign=middle;resizable=0;points=[];" parent="FDPI31BmAs5dh3hoqVat-21" vertex="1" connectable="0">
          <mxGeometry x="-0.0641" y="-1" relative="1" as="geometry">
            <mxPoint x="11" y="-12" as="offset" />
          </mxGeometry>
        </mxCell>
        <mxCell id="FDPI31BmAs5dh3hoqVat-22" value="" style="endArrow=classic;html=1;rounded=0;" parent="1" source="FDPI31BmAs5dh3hoqVat-11" target="FDPI31BmAs5dh3hoqVat-19" edge="1">
          <mxGeometry width="50" height="50" relative="1" as="geometry">
            <mxPoint x="640" y="650" as="sourcePoint" />
            <mxPoint x="700" y="590" as="targetPoint" />
          </mxGeometry>
        </mxCell>
        <mxCell id="FDPI31BmAs5dh3hoqVat-27" value="" style="endArrow=classic;html=1;rounded=0;entryX=0;entryY=0.25;entryDx=0;entryDy=0;" parent="1" target="FDPI31BmAs5dh3hoqVat-17" edge="1">
          <mxGeometry width="50" height="50" relative="1" as="geometry">
            <mxPoint x="200" y="695" as="sourcePoint" />
            <mxPoint x="150" y="790" as="targetPoint" />
          </mxGeometry>
        </mxCell>
        <mxCell id="FDPI31BmAs5dh3hoqVat-28" value="Request" style="edgeLabel;html=1;align=center;verticalAlign=middle;resizable=0;points=[];" parent="FDPI31BmAs5dh3hoqVat-27" vertex="1" connectable="0">
          <mxGeometry x="-0.6911" y="-1" relative="1" as="geometry">
            <mxPoint x="14" y="-16" as="offset" />
          </mxGeometry>
        </mxCell>
        <mxCell id="FDPI31BmAs5dh3hoqVat-29" value="" style="endArrow=classic;html=1;rounded=0;exitX=0;exitY=0.75;exitDx=0;exitDy=0;" parent="1" source="FDPI31BmAs5dh3hoqVat-17" edge="1">
          <mxGeometry width="50" height="50" relative="1" as="geometry">
            <mxPoint x="240" y="810" as="sourcePoint" />
            <mxPoint x="200" y="725" as="targetPoint" />
          </mxGeometry>
        </mxCell>
        <mxCell id="FDPI31BmAs5dh3hoqVat-30" value="Forward/Reject" style="edgeLabel;html=1;align=center;verticalAlign=middle;resizable=0;points=[];" parent="FDPI31BmAs5dh3hoqVat-29" vertex="1" connectable="0">
          <mxGeometry x="0.5657" y="-2" relative="1" as="geometry">
            <mxPoint x="4" y="17" as="offset" />
          </mxGeometry>
        </mxCell>
        <mxCell id="FDPI31BmAs5dh3hoqVat-31" value="https://hello.nexon.com/api&lt;br&gt;or Client" style="text;html=1;strokeColor=none;fillColor=none;align=center;verticalAlign=middle;whiteSpace=wrap;rounded=0;" parent="1" vertex="1">
          <mxGeometry x="40" y="720" width="150" height="30" as="geometry" />
        </mxCell>
        <mxCell id="FDPI31BmAs5dh3hoqVat-32" value="hello =&amp;gt; https://hello.nexon.com/api" style="text;html=1;strokeColor=none;fillColor=none;align=center;verticalAlign=middle;whiteSpace=wrap;rounded=0;" parent="1" vertex="1">
          <mxGeometry x="810" y="695" width="200" height="30" as="geometry" />
        </mxCell>
        <mxCell id="FDPI31BmAs5dh3hoqVat-50" value="- Overflow Requests are enqueued with an ID (ovflReqID)&#xa;- Proxy Processor send reject command to proxy controller&#xa;- Proxy Controller reject client&#39;s request with ovflReqID + request&#39;s queue position + time estimate&#xa;- If client want to resume the request, they must call the /resume/:ovflReqID of the queue&#xa;- After a short period of time (after the the est time about 30s), the ovflReqID expire and the request is lost" style="text;whiteSpace=wrap;fontSize=14;" parent="1" vertex="1">
          <mxGeometry x="570" y="780" width="560" height="130" as="geometry" />
        </mxCell>
        <mxCell id="FDPI31BmAs5dh3hoqVat-52" value="" style="shape=image;verticalLabelPosition=bottom;labelBackgroundColor=default;verticalAlign=top;aspect=fixed;imageAspect=0;image=data:image/png,iVBORw0KGgoAAAANSUhEUgAAAQcAAABVCAYAAABEmiHvAAAAAXNSR0IArs4c6QAAAARnQU1BAACxjwv8YQUAAAAJcEhZcwAADsMAAA7DAcdvqGQAABIMSURBVHhe7Z1nrBRVGIbPtff6UxGIvftPvSD2bvCPil0x9pYgimDvLdGIiELUGLtGowEugkaNvSVGQaq9/dFEQeBa0fU8392zDsOZ3b2Xuzuz975PMtlpOzM755z3fN93yraVPE4IIVKsVv4UQogVkDgIIaJIHIQQUSQOQogoEgchRBSJgxAiisRBCBFF4iCEiCJxEEJEkTgIIaJIHIQQUSQOQogoEgchRBSJgxAiisRBCBFF4iCEiCJxEEJEkTgIIaJIHIQQUSQOQogoEgchRBSJgxAiiqamF3XR2dnp/v33X7fmmmu6ddZZx/ax/c8//ziyEOtrrbWWW2011Td9BaWkqMmSJUvcyJEj3UYbbeQOPvhgN3fuXPf777+7sWPHum233datvfba7pBDDnH33HOPiYXoG0gcRFX+/PNPd+6555rFMHXqVPf222+7Rx991B100EHu+++/d1OmTHHLli1zAwYMcKNGjXIzZswof1O0OhIHUZUFCxa4d955xz388MPlPc7dcccdbtCgQe7xxx93u+++u1t//fVNHODbb781F0O0PhIHUZUnn3zSnXzyyWY5IBIwbNgw99BDD7nVV1/dtpN89913FoMQrY/EQVTlxhtvdNdcc43FEoI4tLe3W5whsHz5cvfUU0/ZOsIREw3Reqi1QtQFAcj11lvP1pcuXeo22GADW4d58+a5nXfe2Q0cONDWw3mitZHlIOqC2ANstdVW5mIEqFsee+wxWz/mmGPMaiDmkIw7/P333xbYDPvZ/uuvv8pH/4f9f/zxhy2xuAXWS/K7sWuI3kPiIOrimWeesc8TTjhhhb4MFFDiErDffvtZX4d7773X3XfffbYPUdh///3dDjvs4K688ko7Nn78eHf66ae7hQsX2jkIwfz5823fGWec4Q488EB31VVXmRAEEAy+T9PpAQccYNfhPL4nGgRuhRDV8AJQGjp0KO5naezYseW9XcyaNcv2e4ui9Ntvv5XmzJlj24sWLbLjnO8LcunEE0+0/V40bGH9/vvvLy1fvrz04osvltra2kodHR0lLwglLyh2fmdnp13DuzR2f/ZxzAuCfX+fffaxZxONQeIgakKhpzCyLF26tLy3i2nTptl+Ci+F+Ljjjisdf/zxtu4tgtJJJ51UWrZsmRXkQYMGmRjMnDmzUtC5NsLirQIr6IjD5MmTbR/H2eYa3MNbD3ZP9g8cOND2cw/RGCQO3cD7vJZBu5Mhe/KdojF37lwrnEOGDKnU5gFEYNiwYXa8vb29NGLEiBXO4fdTmDk+bty48t6SiQTvBKuBY4iHd1lKl112WWn06NEmGhCEKSkEYd+kSZNsu6+DaPIem03hxYFMRM1DJswTMviECROsAISMWw8Iw4ABA0off/yx1YKtCL8dkz/rd7MfCwIXIy0e8Omnn1phRgiSkOERDI7hhlAIuBZpHnjggQfsOC5IgHX2LViwoLyn78I7wRpLv7tmUGhxwISlJqJwYariz+YBBXzKlClm6gZfujvgYyMqeT1/3gQBCG5BkhB/SL+befPmlT777LPS9OnTVziOoGBFYGl0R6RbFaw28l1MdBtNYVsrfMK7I444wr333nvu9ttvt2g5TWbJCHazICJ+9NFHu4kTJ7pNNtmkvHdleLbY851zzjnOZ2Z35JFH2qCl/oQvzDYegz4Qsc5Rp556qh376quv7FxvpThfS7rDDz/ctgcPHmznMY6D7ZkzZ7onnnjCmlTD6NC+DHneV4wrdDprFoUUB+9buhtuuMG99dZbzptU1izmhcyOtbW12WezILNedNFFbujQodZ0lgViRkanqc2bguW9XdD0d91119lvyEvg8oK0pEs1Izhj4rDuuuu6yZMn2zs+5ZRT7B2/8cYbJsg0f/I+J02aZIO9vMXgXnnlFfseYtvsvNBsyHs0E+fW69Tsh4KB+YnZyONNnTq1NH78eAtW9cSkX1WIFfAcuBXVCOYxz42PHuPyyy9fwUTuL9QKqBFo5J0Ra+AzfW7YT9yJZlHeYX+INxCrwaXIK95WSMvB+5pmNQA1yYUXXmg1RzWTvhF4kbIRiJiwzGOQhX+PNhoRGJ2YNeEJlgWjGfktPsOX9/Z96FFZbRIYLAA6T1E7xiaMCfu5zvvvv2/7grvRV8HiYtQrnc747XlQSHH4+uuv7ZNCCWSWNdZYw9abCabt008/bT4f5m8WFPR3333X1ocMGZL5rJjICAlxFNwQUT/Tp083t4MCQ4yC3pTEIPoquBTE2hgRW01YG0mhxIFJQ3799Vf35ptv2jbxBvx3ClIefnoo8GGugjQMQPrll19spiSCbrDnnnvaNr8lDTUf4oFVRIBN1M8222zjrr76agvoEqNgpGhPYw7kKe/a2dLR0WET1GAlMmiM7bRwI+idnZ1u1qxZlS7gfDcrT1JZLF682ARt2rRpzrsHNnAN2Oa7tfjiiy8s3/G703Df2bNnuwkTJtjsW0y4Qz68++677Xf0GvgWRcD/WPMls5Y777yzfGZzwO8NMYJYGzN+YPoZk8uxxx4b9bMnTpxox/GdRT4Qw0qm1ahRo6yHJ/492/S+9JWUnUsa0n+D4zSpkydY57wxY8as1JzKdsg3LMSg+B6du3788cfKeujQFcMXfrsGS/o84nH0t+Hal156qXUYo3NauB9Nn71FYYZso7bEGlBFItfUrighg2yoIYhcN9O1oHbh3sxhQG210047lY90wWvD7eB5X3vtNXfJJZfYPAfUapiB+MQxV4RmOpo08SVpkqun9qOmwZzuKVtssYU7++yzc2kOKyLkM2rYCy64oGLxkR4sw4cPt21q+1122cVq5M0339xcXPYxjyZ5A7eGOSx8AbaWNeICXPPQQw81y5fWrZdeesmsRfbz/knr8J1bb701M+3JV+S39NB4wCLZbLPNzGrg+YH4BC06bMfyak8pjFtBwedH4ZeHBDvzzDPdrrvuaonU7JgDPl9IvK233to+k3CM52V5/vnnbR/+Ic/KvqwYRbgmn/X6zCQ+YtTTBReGT9HFdttt53bbbTc3YsSISnrgphx22GFWcGl25RxcQ/q3gK/tTRgAIQhuDYWdvEIavfzyy1apISQIA/NaIA4bbrihTbMXJsupxSOPPGLXiIk5FQpwPKQplREVWW9TuMleUD4EAX8Lhc+rtsNH3HHHHS0Bqj0H/ilzKEI9qh0mRqFmweIg89SiVhJxPGTyNFn7q0HGblWoueuF/jO0hJHXvvzyS6uAEGzeGQUOcaBgw4cffmjCH8B6OOqoo6wiY+JdWrNY2I5ZBqQRlQf9FqpZDliiDHEnf9x2223lvf9DTATrBnEgUM559IMgfxLI33777XuU5lH8QxcK/+IoCeZH5dW+Cz///LP5oCzB/4wR2t3rfV66wXI+vqjPYOW9xYIRkjxjqy2kVXcg/uMLko0QjcUAGC8Su096oS/OkiVLKtvpYe3A9cOwdfJ47H5A7G3LLbfM7NNDTIPrh3uFhTgI36VPSG9RKMsB0+yKK66wJpwxY8bYZ17gJxLnoP8C61mWA7UAfSHwV4kL1Gp26onlwHtZVbrTHEZTa6uy9957l9dqQ3d44lu0ilGjp99RiA9B2nJIQhqSrszEDVgk5513nq0HKGa1LAfOGTdunH3efPPNma40rWG33HKLuSnBBQesCSwLLO9eAXEoCqgiCshjMQowBj3lZsyYUVq4cKHVwgzOQjHTtTC1+Pz58+069DRLKyrXIQrNtVj3AmADfQJsUxPxLNwrBvcMz5tsfeB8rhmDaDLnezGJDkSKQc3E+T1dGNWXx8CdokPUH8uBdxSrcT/55BNLKxYGgFWD90srRzovBOqxHMgPtGZk5X0gL8+ZM8fyHufTg5feuSGvcu3esh4K1c8BghLuu+++9pkEP++0006z8Qn4ltdff70766yzTKWvvfZaq2HxGVFx/nSF8Qz4Yeeff35lDkRgneMEd+jLQFsyg3heffXV8hldNS1KDFmBQ/zD8LxMkQbsY6ozap0Y33zzjX1y7XqsBiAgSv+Ini6MQ2h2QLcVSNbcviyU1/6HzlYsEHrsJqGFjRY1Yk28X2IXQJ6K5ZlaFuDnn39un9XG8JD3GcjHtbBm99hjD8v/Ib/16v+GmEQUhFCrosAx/x0LgeG/9DvgPHwvLwS2zn4UM1wDpQ/qzLHgB3Jd/H1U3Bdk20fNwXeSbdY+cSv7uV8MVJzjLKFmptbwpm1mTR2GL6PwIl9IA9KCdCa905CfGFPDOdTM5K0k1ODEB4g3wAsvvFAaPHiwnZ8+N9mPJ2Y5cH/2s8SeJcBxngVrMglznoRrV/t+dyiUOIQOQsmCmwRzC1OKAoaA4FJgXlF4MeMpkMxKxHRkuAxMR4bpiOlPAvLSQuEksYAMwPwA3h9cyTXhfpidWR2WuAbPwULiIEAkXJZZSIag4wz3xxwU+UC60XkIE560IL+QL+66666VKqVkpybSmbywePHiSiFFPIJ7SB6kYxLncQy3hGA2ebC9vb0ymJDvpsWB+5DXEJxqhGfh2bk338N9Zt4T9me5sz2hMG6FfxYb2guYZ7EAGsEhzDdMef/yzRXANGfsP23PuBCYf3wfl4EmSExyhvnSJIXJH2ZKJtgIXjDsetw/PSyWoKFPaAv8cDwNbeF0XeV+BBm5P11sQxArDWYowT6eneuKfCCdfvjhB3O5vNVgndcwx5999tmVTHL6qzATNulKfmCsDQE/8g1NmMw5EoLV5EEChV5ALH1pctx4440t/xCk9FaGnRejWnfpJDwfz/zcc89ZHqcvBS42LhKdtHp1kBYKkSfU5tTeWAohuBdq9RioNOeg9Gn1xcxHfcOUYsnjrKOqfDc2H2FyGrIAlgjnchz3JQbXweLAcqjVlImpyfNhPcQso/4Cv500zwvSjPuzkCeS69Ugnckv5MFaaR3OxbrlXK4d3NS05cD7YB9LLbgO54frs83101Zvb5Cr5YAa07zjC7p1OAkWQaxHYoAZg4CAJWqZhOHQKLZ/8bYdjhOgRM3DfmqKcIwAD9DxJA2qTEcT8Ilgn2m4DtYLHaFqzUzEUG3/zq25tr8GCEkLgso0I1L75gFphpUYhoIn16tBOmNJYCnUSutwLt2fOZfrp/NrgEAkzfYM6qoFz0jeCddnO1jQvU6XRjQflDr4TywffPBBRVU5lkWINwQ/LwnqyXHiDvhuqDb+njcfzS9DcYkt4PvhC+I/ck+2s2py7oP/iFUTu2e9BAul1u/r64Q0x3rqL+8B65i8E5oyw28P1gPvhDxWy3JpNrlZDsmYAp2I+BckfDqaJFHZLLAsvAsQPQf1ZBAMtf1NN91kzZxYEnQ2CgO3aN7kb9vwDRlezXGumXVPagmaifBJH3zwwfLe7kENyX25D1ZStd/Xl/HiXWn6hf7wHrBWsZJo3g7xLuZDZW6Kjo4OeyfE2ogjNKT2XwVy7SHpa1P7F2cCNvRSGzlyZGWcQjV45CwTLeCV2QQoFtjk+yQa92cwDSPaaDvOgmsxsSl93QksMWinOyAuBCkZy09//P6K940rf7K7aNGips/slQdBHAiAAvkxFDkCorjQBNQZiVm4PyBGHPIEk4sly6xvFJh5wa2g2bPW/TH5MAf32muvmsGoJMx1iMlI8ya/s7+B6YxLhRv30Ucf2fumGe6nn36y97gqrlqrENyHNOwnD5KvGhFQXFUKNyqzGRBcZPRagCYmXJVafdKpBbyIWBColuUS4PViOmaNzejrzJ49u2It8c5CczUuFowePdpdfPHFtt4fIU+RR4roYvVLceAn4yoEiAlQ4GMuiFg1+CdthkPzvokt4UIyjwKT7QLzENSK/It86JfiIJpPMt7AqMIwT4IoLqoqRVMI/VNwJ4oWlRdxJA6iKdABDGiy668dwFoNiYNoOMQbwjT/oXeiKD6KOYiGk4w3JGdUptUIK0JiUUxkOYiGE4s3IBiMZ2GshSgmEgfRcF5//XX7pEcglgJt+3Qnx8XgrwhEMZE4iKaBB0uHMLqr838PTIGvPg7FRTEH0XCIMzCbMhOl0OEMC4IeqZtuumn5DFFEJA6iKdBiEebEIO5Qa+4EkT8SByFEFMUchBBRJA5CiCgSByFEFImDECKKxEEIEUXiIISIInEQQkSROAghokgchBBRJA5CiCgSByFEFImDECKCc/8BKJpBsHf9P/gAAAAASUVORK5CYII=;" parent="1" vertex="1">
          <mxGeometry x="570" y="920" width="263" height="85" as="geometry" />
        </mxCell>
        <mxCell id="FDPI31BmAs5dh3hoqVat-53" value="" style="shape=image;verticalLabelPosition=bottom;labelBackgroundColor=default;verticalAlign=top;aspect=fixed;imageAspect=0;image=data:image/png,iVBORw0KGgoAAAANSUhEUgAAAQAAAABECAYAAABuzOuoAAAAAXNSR0IArs4c6QAAAARnQU1BAACxjwv8YQUAAAAJcEhZcwAADsMAAA7DAcdvqGQAABDkSURBVHhe7Z1XrBVFGIAHUUEsPPogCgRLLCExJBqQCwGV2B8MERGkWSIiMQhI02AUbIkaRYoRG8YSY5DeNCqo6INBihRRio0HEyICgg3W+f67/2FZ9pxzufeePWX/L9nsubuzdWb+Oju3ReBxhmFkkhPCtWEYGcQEgGFkGBMAhpFhTAAYRoYxAWAYGcYEgGFkGBMAhpFhTAAYRoYxAWAYGcYEgGFkGBMAhpFh7FsAQ/j777/dP//841q0aOFOO+002UbTOHTokDt8+LCsTz75ZNeyZUvZZ9QGZgEYbt++fW7QoEHujDPOcNdee61bv369CISFCxe6gQMHulatWrk+ffq46dOnu//++y88yqgFTABkHDr0Y489Jpqdjv/555+7ESNGuF69ermnn37aDRgwQATE2Wef7e6//343a9YssQyM2sBcgIxD50bzb9q0SYRB586dZfsVV1zhPvnkE3fSSSfJ34sXL3Y33HCDu+2229zrr7+e225UN2YBZJzt27e79u3bu06dOrmffvpJtp1zzjlu2bJlR3VyLANgn1E7mADIOBdddJFofzr7Z599JttuvfVWd+qpp8pv5eeff5Y1BqMFAmsHcwEMgQzAVVddJUKA4B/mvvLXX3+5Nm3aSOffu3evO/3008M9RrVjFoAhbNy4MWcBEACM8tFHH8kaVwHtT1owmg34999/RYBoupAMAksc3Xfw4MHEbALHHzhwQIQM5zNKjwkAQ9i1a5es4z4+HfWLL74Q7Y9rgCUwY8YMSQnSYemoCIwLLrjAPfTQQ2I9TJo0yQ0ePNht3rw5PIuTjn377be7888/31199dWy/7vvvgv31o9DWLJkiaQbSUXG9xslAhfAOILXZoHXVOFfDYNjqhmed9y4cbiCwYMPPnjU8//++++ynWX//v2B196BFxLB/PnzZf+6deuCCRMmBF4gSJn+/fsHGzZskN9sB29dBD169AgGDBgQeEEg5x84cGAwc+ZM2Q/ffvtt4C0MuYZ3OYKePXsGXtAEXsiEJWoLL1jDX+Wl7BaAvwcxIdEm5cY3Qhn4gonaUNCAaLa1a9dWxDM0BrT86tWr5bfvqO6EE440C0x+TH8sA57v5ZdfljEBvXv3lrp75513RPP/8ssvUu61115zJ554oqQL0eLED4YPH+5+/PFHOZZgI+8Zd+OOO+4Ir+LcW2+9JWVIPeIqkIbEsmBkYq1Be3/hhRfE7So7IgbKBNpg1qxZgTctA/9CRFOUi/Xr1we+0YlmO14LAE3FsWjDaoR6QPuy7NmzJ9xajzfNRZOj9dHit9xyS7Bv375wb731gAVUV1cnGt4LRNmuGg7N7juxnBvrYOzYsUG/fv2krqPveenSpUHHjh1z1gYWRbVbVvng2XnG6HssF2UTAJiS3bt3D7w2CR544AF5IZih5ah0KoIOzPXpDIVIEg5s41g6STmFWGPhnS9atEjeQ9Lz8U7++OMPEZKs49DJqT8ERdxkx8xHACxevFiEA+eKl+H6f/75Z7BkyRIRIh06dJDzbd68OSxRW9BWWFRYlpOyCYCFCxdKJaMREAQqANA4aaKdFw21e/fucOuxUFncM1oM4RWHbZxj/PjxFVGxaYL2ztdh6fgIAIREFATBli1bpL55Z3R63hvCAUHA+RAKtQbPS3vHwqkEyiIAeAneR5RKnjdvnggB/vZ+dOpBH66pwidJ+yka2GLZu3dvuPVo0IDsp2xWoL54boRfkvCmo9O5cZNwC9D2CIxu3bqJcCDgx7GcAyHKQluYOHFi6sogDRCEWIrFLM20KIsAQLJrZ8Kk1IpPu/PT+Oj4Dem0arFQefl8NypVrQDOnQXo1MQGMPWTLB/qdNmyZRIjINaDq8Va3zdCd8WKFVIPbCc+wO9afH+8C7IsPF+lZAHKIgBU69KZ8mnTNCDFxT2wFDLbqTgVFKzzxSmoVLVsqjEW0FjQ1MViN7xfBD9l45YWf7MdwUqZQpZYNYOSo61VkoWYahrQV7LzFSwpH/BmIAJIUmm+88i2NCHtxAcwDHAhdRWHFBb3y8JgGLjssstkO/cch5QZKTLwjVjWWYCJQpLeXxTSfwwiomw0zQj8zXYmIqFMfP/xQpvynU3qbf/+/c53OGlfXki5PXv2JKZ5vZCX8qQoGZDE70Ll+HSaQU+czwsu+XiqWJ3/8MMPcm/nnntuuOVoOC/3ynm9cpJ7535K2jeQAmmA70PEnwUzmUuzqAZ+/vnnw5Lp8eKLL8o9JAVk0FjEJrhf7k/vV/8mHZak9fBrKTdt2rTUXRqjHiwJ6knrDLdj7ty5Eneg7ZFp8J0tLF3vklJflNX2yPG4cgxMUjgvFmC7du2Crl27yvm0PXONQlYQ1iHH4gLE2wUWD+1G21bfvn1zbY11PpezOUjtY6CtW7e6LVu2uJ07d7pnnnlGNO/o0aNdhw4dZOFDlNatW4elSw+SfMKECTLpBRKf4adRkLqLFi1yv/76q3wy++yzz8pgGO4Zbecr3V133XXHDFThy7qLL75YBsK88cYbRTUjYE3oePvGwvtDixr1luZLL73kvvrqKxmoVFdXJwOPfvvtN3fmmWeKFvad0T355JPy3cHjjz/unnrqKbdgwQJ5jwxqevXVV2V///79Zf4D6pEh0CNHjpRy1D3nYbjzvffeK9dlEFO++saawLrxrqF8gRmFe2jbtq3r169fbq6F77//3j366KNy/1gYOk1bs4MASBMCZVyWpZSSrRhoeDQB90HaKR9Ia/X/k6R3HH0+gl74tQ2BAUSkhhq7oH0qya+sFDTWxKIDi9SqQ+MCwV3SlGjeaHukffBuOZay1CXxHeo1ahUA7aOYBcD1uUZSm1Drg7EYUdIYMJS6ANCHwmwiKFIuqAii19yL19rh1mOhHJWeVEFJ8Ew82/E8H0KFBteU5XhgtF81Lw0FwUq9sWhQlvqkXvSdqxIgA0EHji5kJNhHB+c4FQiMBUFw0DE5F+MfPvjgg7z1wHaEB+dJwlsUcl4EBCNiNTPGNXGNWZeK1AWA+t1IzKgflja8VBUAZAPygWZFQ1CuIfdL+oqKZEkaNVcJzJkzR56nGpevv/46fIriUHd6XJIw1rQt+6kvfProwjb2ebdPBIJ2VF3YTzumTRfqpN988420oXwZLxSQXksXrBQERqmt5FQnBOFS+N34W/7h3BNPPFG2jz18hYq/t2rVKvHbL7zwwnDP0Xjzz914440S3efz1GJxCt8QpAwxAmIeacY1Gsqbb77pdu/eHf5VXeDPd+nSJfyrMETUdY5DIurxWY68AMhtoz3yUVcSxKgoR1yIqPx9992Xywop3j10U6dOTYwBjB8/XsoXihF4a0X8ffpGFC8YJG5QqhhAqgKAF8hXZARkvE+UC55EoWMSoCOlxq1xDEIinj5iO2kX1pSNdzTOQbpOjyGwQjmF44YMGSIpyXwCIJ/A4txcm3PG4ZqnnHKKVBypIoI7xeCY2bNnN1oYcj933323TN9tHIGOc8kll+QVxt6dEOHOfIfUL0G/QnAO5jNAmBAo/Pjjj92XX37p3n77bbkGnThe3978l7Qf52e25SRQGtoNCTijaAhgEqCG+fPnu5tuukl+NzepCgAauk4t5U2bY6QanZ9PQHm5dKCbb75ZovDMR8dnqvfcc490aM4zbNgw2d6uXTvpOA8//HCuE9O5ly9fLgLGm2iivens0U5Op2EufAQAedfoFFgKlXfllVdKAyEjcP3118t2JDrRZKbJjuesiQoT5fX+ojSQJCERh4Y6ZcqURgsA3icCJK7hsk5UAPA7/n68WyCTk6CdaW87duw4pj5RDrRLOj7th0wAGQCFfbQthABtjglNonBdytMuaPtJjB07Vto8bTF6fcYWkJ3iE3XvtjW6fRQEAZAW/mWIL4Tfhf8VB5/NS0rxtSgXn1zCd2wJuBCUi356OmnSJAmeKJThGHx2cqyU5Rh+R9F4BOPUk8D/Yj+L+mIaWOK+kuAZ2c9z+MYRbi0O99aUxTgWrQu+RUiKAQCZAm2TlI9C+8LH53sVfHzK0Cbj/j6BuqQ24ZVMbuhvobZAGWIA8QAnMQNtS6Wq46PFXYlBwgIaOckX+vTTT0UrY1b5e5NcLFNNTZw40fXs2VOkLZqSMQRIYsrMnDlTfC+sA2XlypWyxufCnLr88stlmqq4dGcqbPAvV9ZxOD/aA7h3TECsCiZz4L6SwL9W8vl7SXBvTVmMI9BOiN3wD0+AsSdoU0xpNHEUxmxQn4wKveaaa8Tlw8JEczPRCW2AtofFCFgLWJteuYiFSJt4//33xULt2LGjlFEw7d99913ZV6wt0KZpw8RmaI88A+0funbtWro69g+YGkgyLplPIqLh2Y62RtrGy6hGZh/5XNI0aG/V9IqvlNw35SxYD75Sw71H4PNfzkV6h2vHYRuWhZbhXKR74hpAQeLrMxb6tNgoLWhOougsaFZd+Pu5554LSx0BTU+kHm1P3VGW0X5jxozJWX5qAbBt1KhRci5GA1Ke47Ak4mARUC6f9aHQljkH56ZNa1vjWCaoSWqbzUVqAoDOrA9WKJ+uA2notHSoKFF3gEpjiZdhGwIBc45ymsNPMtm5J/K/+fYDZWgETIaBiRYXSlEQMtrQkgSOkQ60CQbrUAd0PtYstItCnYmytBvSctR5tA5RMGxDENBGGdqOq6rXicN1UAYNGTzG9TgHgovUMQqMa3GdYsc2lZIKAB6KUU5IMR6IjoYULZQfV/89aXQe50CzRyeTBK6Db04l0ek5XrW0Xjfu3yl0bPY3xwQNNArOxTNnFRo+g2R4B6XUXJUOwoa2QJuoZEomAOiMa9askZfAwgAO1kjFQg1DO3BSkJBOzYgqFpWaDNNk0AZWBdqf4wn60fHZz99YHvnMMMpwPsrwu7FgGXBdLICke88KaqXxHuJDZrMEQpB3kM9drBRKFj0iZUEuE3zncu+9956kWgisRPPxcc466yz5kCYp6MFYAAIjnJsADwFD0iOvvPKKpOhIuZEe9Ca4u/POO3NBnA8//DDvgBxy5wQZCQJxnsayYsUKSQUxvoFxAFlFP/Um/VqonmsZrwykLfAhUcV/oFUvB0oDPg2aFT8cX1s/wCgE1kEx05H9aFmka5KPhDbW/dHgYD4og1tBUCcpmFMMdVvw94oFfGoZ3juf0Oq7yCq4m7yDarCASj4QyJvlos19J6vokWre/HePPPKIDA1mbvt8ab44XhhJmggrZ/LkyXkHe9Qy1C3vAc3HvxqnSXmXT1JspL+OJx1aC2AFktYjZd2QgWDlJNWRgJUOjZi8LiP5Gpp39RaI5JYRGFlr6OCtLDd06FD5TaPXMfLdunUTV40cNkOpszRWAUGIUKzE70DiZKdWGgAdmKGjx9NYKauaLovQyYnbEHdRiPVgEbEwtDtLnR/Q+tXQ+cEsAKNZQOMRdOWDmnEN+LDGqAxMABjNAjEUzX7wySxWkVH5mAtgNAvbtm2TNea/fmNhVD4mAIxmQT+Cwu/Pms9fzVhNGU0G/59gIBAM1MEveJfmYVY2JgCMJkPaS4N+dXV1siY9Om3aNPkE16hcLAhoNJkN4dx77du3lzERBAPXrl3rLr300tLOaW80GbMAjCaDz0/nR5fgDjBZBvPfMdFGteTDs4oJAKPJnHfeefJfbRgJyPx3aHzmubvrrrsyO0CqWjAXwGgWDhw4IFO6MXUaX2niBljnr3xMABhGhjEXwDAyjAkAw8gwJgAMI8OYADCMDGMCwDAyjAkAw8gwJgAMI8OYADCMzOLc/0bbBn1iseyjAAAAAElFTkSuQmCC;" parent="1" vertex="1">
          <mxGeometry x="850" y="928.5" width="256" height="68" as="geometry" />
        </mxCell>
        <mxCell id="FDPI31BmAs5dh3hoqVat-56" value="" style="shape=image;verticalLabelPosition=bottom;labelBackgroundColor=default;verticalAlign=top;aspect=fixed;imageAspect=0;image=data:image/png,iVBORw0KGgoAAAANSUhEUgAAARUAAAA7CAYAAABVPx4QAAAAAXNSR0IArs4c6QAAAARnQU1BAACxjwv8YQUAAAAJcEhZcwAADsMAAA7DAcdvqGQAAA7YSURBVHhe7Z1ZjBVFF8cLEBEB4cmECAgkRAnxlYRVRE3YDC+ACAzbAyQQDCogm2gIL4YHkF1MjKAgGHBhFwhLWBJ2RHQUUEF5kJAgKCqg0F/9Dn2asrl3hhnbO3PnO7+k0n2rq6q7T53616nuZqgVeZxhGEZG1I63hmEYmWCiYhhGppioGIaRKSYqhmFkiomKYRiZYqJiGEammKgYhpEpJiqGYWSKiYphGJliomIYRqaYqBiGkSkmKoZhZIqJimEYmWKiYhhGppioGIaRKSYqhmFkSo0SlVu3bkkyDKPqqFGismnTJrdw4cL4l2EYVUGNERUilA8//NCdP38+zjEMoyqoMaLy999/u5UrV8a/DMOoKmqMqCxdujTeM+4Ve/5k/BfUecMT7xeUP//8033zzTfu448/dj///LNr2rSpq1WrlqtTp05c4jbXr193X331lVu7dq07cOCAa9iwoZQ/cuSIa9Omjfvrr7/cl19+6WbPnu1+/PFH1759e9elSxfJJ9WtWzduqfqg975mzRp38OBBd+jQIbmvJk2a3HX/v//+u9wHdkAE2ALl+E1bRGmUYZ/7xY5w8+ZNd+3aNVdaWirnYP+hhx6Ssjx7+vTTT8XuDz/8sJQ3/gm2P3PmjLt48aLbt2+fa9mypdgaO2/ZskXs+cADD0jKBf9RxS+//OJOnTolfY3fNmvWLKefU5Z28WX19ccee8xt3bpVzllUfcR/0VFovvjii6hTp05RixYtokmTJkWdO3fmvwmJJk6cGF29ejUuFUXHjx+POnbsKOUmT54cvfDCC1KORD0/aKKXXnopyUun5s2bR77j49aqB1euXEnu95VXXokGDBiQ2OLVV1+NvGPFJaPIO/Vd96T14LPPPrvr2Lp16+QY971+/Xppl3w9B+dmn/OS7wU48iIjdYw75LL9Rx99FHXo0EH2sSFb7Ik/e7GPa94G+9MX2JyEv+K/XlSkn2lfwY/xddrr379/NGXKFCmrfecngLhkcVBwUbl06VL06KOPirEuX74seTdu3BBDk4cx6SCMTochDOFA+/rrr6WciopXdkkDBw6UfAaLj2wkMYApUx5+Jog++eSTaMGCBZVOJ06ciFsrGwY61+lnvWjDhg2Sx/2rYNIW1wPqbD6iSGw2YcKEyM98chw7qd1wctqmLepRh3xsiC0RDhUhzn3s2DGpM2/evOR8xh3U9vgZNiPhixs3bhQbY0/2tV/wQYXj2s/YWP0XO+MniAVi/ttvv0k+WxV86iq0SRsmKmWAcQcNGiSGYhCFA94vByQf4yIGJH5TPhQVIHrR2RpoR9vFCSoKDkKUxDXda+I8YfLLuLi1sjl58mRyn2FUhgiSj5P+8ccfce5tcDQcjuOIiF/2xEduR320pQ4K1NfyiJSCHTUfR8XJTVDKRv2QdPjw4Tj3NvTD888/L8foAyY8+PXXX5M6OnGG4C8coy/xXb9Ekt/4VSgq+KUKfzFRUFFhEKmyz5kzR5xcE4MCseAYMyp5qDm/mSEYBCg3+XQeW+XfigrQBk6SL5V3nHQv0A4CoiKAE3Evfg0t10/CkdNw/xzDJrqkoy0cU51Twc44OeV1OQScR8P2ytrp/41QIOi3NEuWLEmOE51on/AbAc+1tNQoRicQnVBICAvH8QGOMQmFQlMMFPTtjze4O3funOx7UZEHUZratWvn9u/fL8coc//99zu/lJHfP/30kxs7dqx74oknpOzy5cuTh5HgB7Q86IIwvyLUrl1b6uZL5R0n3Qu007p1a3kAOHnyZDd06FD3zDPPJPcK9913X7x3hxEjRjjvhG7Pnj3u22+/lTwe2r755puupKRE2lW4Fi8qss/DawU7aTkeZqfxA8D5QSJp0aJFiU2N/AwfPjyxNX6LDdXmfjLM6RdqV8r7SFF8Gl8AvrV67rnnXOPGjd3jjz/udu/eLflFBcpSKFiDckrSmjVrRIlzJX3oxczKulZn1zAR1uvszDZXpILC36vK00YYdVQ06bWUB1GEzmREE1wvz5kuXLiQ3BuzYxraZxbjOPfKsoUZjSgu/ZAQeGbCTEhkQ4THcxWe4VCfGTRceiksQadOnSpleFjIfVUUZt3vvvsu/lX86NKElCtSwfYaFdKvRBjqr/RXLhtu2rQpaVOfxRC5EqGnfZ0+pJ+LiYKKij7hJvmZMM7NDYMGIxM+Eu6XlpZKKBgOSB1MuUSFeuPHj5c2yoOy1MMJKpvmzp1b7iDkevU60wMbYVHbkM89p8UiFGUe+PFwOt8yBlHBRpwH4SFRb9q0aTlFS8HOlMPxK4rW3bx5c5xT/PBMRG2eS1SY+PQ4fYFtVRiwfS7wfa2DmNDPCD4+zz7Le/q6vGVUdaWgyx/e82vYvWLFCtmG+EHp5s2bJ+/qvbFd3759JdSvV6+ehIIskWbNmuV8p0mIyfv/NBpueqGRbzP8PcrvsqAO3w/QbmVTt27dyl0CERrrV79eEFyDBg1kH8Lli4/WnI8YZBkSwjJJQ+333ntPlouvv/66/A7BjqtWrXIdO3Z027dvd95JnXdS+e6C8o0aNYpL3g1LS3jqqadkWxHef/992WKL6gz9sHPnTueFV2xVFmG/5MJHZfGec0OGDBHb0reAj+KHafScXixkqcu3KGPGjHE+qpZlf9u2bV2vXr1kyUsZ2vFiI3WKgtvaUhiYyZlBOS2zqD4tV5iheY/P7KCv04gC0ksL8jjGUglQeL5jIU9nbhSf2ZnoproQPpBLh7Qs5/QYER1RSPjmRtHZi8S9cu9pyNNX7LTFebE79sW2bNM2BfJY/hByp5eNHKNdIihmTfpSIZ++YEalX1kCpOtrXcrpg2ag3TAqoxz75LGfC/KJEFjShefhuqibvrd0O7Nnz05sGD7IzkX49if9FoZzc88cGzx4cPLwnShS89MRH9enxzSK1mVp+lq0fdpW+xQDBRUVwFkYDBgR59V1KAMIh+R7ERxPB6CWYSCw5tcOWLx48T+chVerWp4BRAf5CEKcr7rAtei9c69cI46IIHLdJI7xepv9XILIQNJyuh7PBWLC9yiUSyees3DudPs4LsfTz1PIpw8Qaa6VPmIZR38wgLEz96PtUy4cgPQn9SnDGz4mBZZK1GVgcT8MnqNHj8ox/fjrnXfeuSvsx4Ycow7nZZ/JCbtwzpKSEhFG9Q3Kc62ff/65/Oa+hg8fnlwry9ayoH+0LInr5Xwsczg3eVx72s90+cl14rPq01pn/vz5iSDqspby5HMv2Fbf+BXbcrLgogIYGBFAgTEkiY+6jhw5ksxidAD5b731VvTyyy8nX9bisDgohg/B+ehwdXDaw3GrGzgkAqrPVrhWogpmNwY5+eQRyaRnXGCwUB5nzSeYOCsDn/ZJOD0J26ggkbA/Yq1odBg6MW0hQtTD5vSdD/OlnPYBoqOiznXThzpguN+uXbtKHepyT5yXAeOXtnKvGg1wDs5NGX3uwOBS6E+uhYHJOfV6KUseUQGCRDs6s+sr39AXqIctunfvnteGCvdIfdLatWvF9vp8imthkkj7ooIPM0Fge8pTj+vERuF5+c0x/B+/VR9mi/jrmCgWqkRUFBwPR8NoGDkcRMwoangchI5jAFA212AD8plBCPFpt7qCMDADMpi4rzDi4p6533z3CGqvXGA3HeA4MDZTO9MuW44zICgTPshmQJIXtq2zKFvgunTgqnCA1g0HAO1oWa4D4Uc8Kce1IAIMeoSHvHC5p6Kiokd5FTc9LwKEQGFHxJh74zh52BRbsK/nC6GN0O75CJc/iBHtkIef0UZZ/QScAzuoT6avA2gDu2lZfIKy5IURY7FQpaJiZA9OqEsslkD5ULHQgYxjp5+nsCXKCPNwen4jFro0YaAwGzO7hoKkS1gSMzyzNv+MAhHhfCSuV4VHBYl8zdNBqFEJUapCXRUG6mhUwdIYaI9rQlg4XhnC5Q/3Y5SPiUoNhOcHOgBVDEIQA13b6/KCwctvBrMOduqSx6DUGZPy5CFAlGNQM3i1LlCWYxqV8ByGMghOenBzXiIQkooUs7S2Rx7XwT55W7ZskTJpuA6NbvSVOVEOv1VkKkMoKjwnUTsY+SnoK2WjMPjownlBka8zhw0b5vyaXV4rv/32284PMHldzDG/9HGtWrWSOvpqlLrTpk2Tcl4AJM9HDMnr8h07dsiWMrz23rZtm/v+++8lj7rgBUA+C+ATAv2MgM8C+BMBvKL1QiLXA94H5SthH+kkXxL/8MMPsuVLYS+Q8rdyfMQhebpVvFDJn5EA/jwBxzkXfPDBB7KtzCtuL4LOR3yuR48ecY5z48aNcxMmTJBX80Z+TFRqIAzemTNnijD4iEQG7ahRo9yuXbtk3y9F3MmTJ13Pnj3luwjQfz7B9zp79+6VbyQQAASFgY/AIBR8T0Eeg45vbhiwtAmPPPKIfA/Db74pou1OnTpJez7ikOSXECJqKkS6ffLJJ2ULXCfn4G+98D0T14LAkMf3JVwLbW3evNmNHDnSnT17VkSP73LY+mhCvvXRb4L4ZxGVAZtw/YgLn9Gzz58rxR5GfmoRrsT7Rg2EAeaXBrJlwJGICNIfdfklhnv66afljwf169dPxIMyp0+fTj6wY9ASUbz44ovSHgOtT58+IjDPPvuslEFYli1blkQLRBEIGmLFR1xsX3vtNfnAi/YRvtWrV4tA1K9fX+qUlpa60aNHy7kYyBotEBXpx3na1rvvvusefPBByeNjSD7A038bhigMGjRI8tL3W1F0mLD9t23VdExUjARmfyX8i3kIDiKCGJFYvuA2RCI6wLSuilaIRilaPxyURB0kjZgUbS/9l/uIQIB8BFDbQlBYmrHcI58viXv37i2RE1+nGoXDRMUoehAlxISlElEOz3GInHiWM2PGjLx/7tH4b7A4zih6iI5YJg0ePFiWazxn6dChg5s+fboJShVgkYpRI2C5xPMbHvwSpbCcSi/DjMJgomIYRqbY8scwjEwxUTEMI1NMVAzDyBQTFcMwMsVExTCMTDFRMQwjU0xUDMPIFBMVwzAyxUTFMIxMMVExDCNTTFQMw8gUExXDMDLFRMUwjEwxUTEMI0Oc+x/K2bRNDUR8pAAAAABJRU5ErkJggg==;" parent="1" vertex="1">
          <mxGeometry x="711.5" y="1011" width="277" height="59" as="geometry" />
        </mxCell>
        <mxCell id="FDPI31BmAs5dh3hoqVat-57" value="if f_req &amp;gt; f_max =&amp;gt; overflow" style="text;html=1;strokeColor=none;fillColor=none;align=left;verticalAlign=middle;whiteSpace=wrap;rounded=0;fontSize=16;" parent="1" vertex="1">
          <mxGeometry x="1147" y="981" width="250" height="30" as="geometry" />
        </mxCell>
        <mxCell id="FDPI31BmAs5dh3hoqVat-58" value="Hello API" style="text;html=1;strokeColor=none;fillColor=none;align=center;verticalAlign=middle;whiteSpace=wrap;rounded=0;" parent="1" vertex="1">
          <mxGeometry x="290" y="1100" width="60" height="30" as="geometry" />
        </mxCell>
        <mxCell id="FDPI31BmAs5dh3hoqVat-59" value="Hi API" style="text;html=1;strokeColor=none;fillColor=none;align=center;verticalAlign=middle;whiteSpace=wrap;rounded=0;" parent="1" vertex="1">
          <mxGeometry x="390" y="1100" width="60" height="30" as="geometry" />
        </mxCell>
        <mxCell id="FDPI31BmAs5dh3hoqVat-61" value="..." style="text;html=1;strokeColor=none;fillColor=none;align=center;verticalAlign=middle;whiteSpace=wrap;rounded=0;" parent="1" vertex="1">
          <mxGeometry x="490" y="1100" width="60" height="30" as="geometry" />
        </mxCell>
        <mxCell id="FDPI31BmAs5dh3hoqVat-62" value="" style="endArrow=none;html=1;rounded=0;" parent="1" source="FDPI31BmAs5dh3hoqVat-58" target="FDPI31BmAs5dh3hoqVat-39" edge="1">
          <mxGeometry width="50" height="50" relative="1" as="geometry">
            <mxPoint x="210" y="1220" as="sourcePoint" />
            <mxPoint x="260" y="1170" as="targetPoint" />
          </mxGeometry>
        </mxCell>
        <mxCell id="FDPI31BmAs5dh3hoqVat-63" value="" style="endArrow=none;html=1;rounded=0;" parent="1" source="FDPI31BmAs5dh3hoqVat-59" target="FDPI31BmAs5dh3hoqVat-39" edge="1">
          <mxGeometry width="50" height="50" relative="1" as="geometry">
            <mxPoint x="337" y="1110" as="sourcePoint" />
            <mxPoint x="395" y="1060" as="targetPoint" />
          </mxGeometry>
        </mxCell>
        <mxCell id="FDPI31BmAs5dh3hoqVat-64" value="" style="endArrow=none;html=1;rounded=0;" parent="1" source="FDPI31BmAs5dh3hoqVat-61" target="FDPI31BmAs5dh3hoqVat-39" edge="1">
          <mxGeometry width="50" height="50" relative="1" as="geometry">
            <mxPoint x="409" y="1120" as="sourcePoint" />
            <mxPoint x="423" y="1060" as="targetPoint" />
          </mxGeometry>
        </mxCell>
      </root>
    </mxGraphModel>
  </diagram>
</mxfile>
